<?xml version="1.0" encoding="utf-8"?>
<!-- Generator: Adobe Illustrator 20.0.0, SVG Export Plug-In . SVG Version: 6.00 Build 0)  -->
<svg version="1.1" id="Layer_1" xmlns="http://www.w3.org/2000/svg" xmlns:xlink="http://www.w3.org/1999/xlink" x="0px" y="0px"
	 viewBox="0 0 160 42" style="enable-background:new 0 0 160 42;" xml:space="preserve">
<style type="text/css">
	.st0{fill:#004062;}
	.st1{font-family:'DINCondensed-Bold';}
	.st2{font-size:24px;}
	.st3{font-family:'MyriadPro-Regular';}
	.st4{font-size:8.1551px;}
</style>
<g>
	<rect x="119.3" y="29.1" class="st0" width="1.2" height="5.2"/>
	<path class="st0" d="M124.1,30.2c0,0-0.1,0-0.2,0c-0.1,0-0.2,0-0.4,0c-0.6,0-1.2,0.3-1.2,1.3v2.8h-1.2v-5.2h1.2v0.7
		c0.2-0.4,0.7-0.8,1.4-0.8c0.1,0,0.2,0,0.3,0L124.1,30.2L124.1,30.2z"/>
	<path class="st0" d="M127.4,30.5c-0.3-0.3-0.7-0.4-1.1-0.4c-0.5,0-0.7,0.3-0.7,0.5c0,0.2,0.1,0.5,0.8,0.7c1.4,0.4,1.8,0.7,1.8,1.6
		c0,0.9-0.6,1.5-2,1.5c-0.8,0-1.5-0.2-2.1-0.7l0.7-0.9c0.4,0.4,0.9,0.6,1.4,0.6c0.5,0,0.7-0.2,0.7-0.5c0-0.3-0.2-0.5-0.9-0.7
		c-1.3-0.3-1.7-0.8-1.7-1.7c0-0.7,0.5-1.5,1.9-1.5c0.6,0,1.3,0.2,1.7,0.6L127.4,30.5z"/>
	<path class="st0" d="M131.6,33.2l0.4,1c-0.3,0.2-0.6,0.3-1,0.3c-1.2,0-1.7-0.6-1.7-1.7v-2.5h-0.7v-1h0.7v-1.1h1.2v1.1h1.2v1h-1.2
		v2.6c0,0.5,0.2,0.6,0.6,0.6C131.2,33.4,131.4,33.3,131.6,33.2"/>
	<path class="st0" d="M148.3,33.2l0.4,1c-0.3,0.2-0.6,0.3-1,0.3c-1.2,0-1.7-0.6-1.7-1.7v-2.5h-0.7v-1h0.7v-1.1h1.2v1.1h1.2v1h-1.2
		v2.6c0,0.5,0.2,0.6,0.6,0.6C148,33.4,148.2,33.3,148.3,33.2"/>
	<path class="st0" d="M142.5,33.5c0.7,0,1.3-0.6,1.3-1.4c-0.4-0.1-0.9-0.2-1.3-0.2c-0.7,0-1.1,0.4-1.1,0.8
		C141.4,33.2,141.8,33.5,142.5,33.5 M140.7,29.5c0,0,0.1-0.1,0.2-0.1c0.5-0.3,1.1-0.4,1.6-0.4c1.7,0,2.4,0.6,2.4,2.1v3.2h-1.2v-0.6
		c-0.3,0.5-0.8,0.7-1.6,0.7c-1.3,0-1.9-0.7-1.9-1.7c0-1,0.7-1.7,2-1.7c0.6,0,1.2,0.1,1.5,0.2v-0.1c0-0.7-0.4-1-1.3-1
		c-0.5,0-0.9,0.1-1.3,0.4L140.7,29.5z"/>
	<path class="st0" d="M151.1,33.5c0.7,0,1.3-0.6,1.3-1.4c-0.4-0.1-0.9-0.2-1.3-0.2c-0.7,0-1.1,0.4-1.1,0.8
		C150,33.2,150.5,33.5,151.1,33.5 M149.3,29.5c0,0,0.1-0.1,0.2-0.1c0.5-0.3,1.1-0.4,1.6-0.4c1.7,0,2.4,0.6,2.4,2.1v3.2h-1.2v-0.6
		c-0.4,0.5-0.8,0.7-1.6,0.7c-1.3,0-2-0.7-2-1.7c0-1,0.7-1.7,2.1-1.7c0.5,0,1.2,0.1,1.5,0.2v-0.1c0-0.7-0.4-1-1.3-1
		c-0.5,0-0.9,0.1-1.3,0.4L149.3,29.5z"/>
	<path class="st0" d="M136.3,33.2c1.5,0,2.5-1,2.5-2.4v0c0-1.4-1-2.5-2.5-2.5h-1.4v5H136.3L136.3,33.2z M133.7,27.1h2.7
		c2.3,0,3.9,1.6,3.9,3.6l0,0c0,2.1-1.6,3.6-3.9,3.6h-2.7V27.1z"/>
	<polygon class="st0" points="113.8,27.1 118.9,27.1 118.9,28.3 115.1,28.3 115.1,30.2 118.4,30.2 118.4,31.4 115.1,31.4 
		115.1,34.3 113.8,34.3 	"/>
	<g>
		<path class="st0" d="M154.7,33c0.4,0,0.7,0.3,0.7,0.7s-0.3,0.7-0.7,0.7S154,34,154,33.7C154,33.3,154.3,33,154.7,33z M154.7,34.3
			c0.3,0,0.6-0.3,0.6-0.6s-0.3-0.6-0.6-0.6c-0.4,0-0.6,0.3-0.6,0.6S154.4,34.3,154.7,34.3z M154.7,33.8h-0.2V34h-0.1v-0.6h0.3
			c0.1,0,0.2,0.1,0.2,0.2C154.9,33.6,154.9,33.7,154.7,33.8l0.2,0.2h-0.1L154.7,33.8z M154.6,33.4v0.2h0.2c0.1,0,0.1,0,0.1-0.1
			c0-0.1,0-0.1-0.1-0.1H154.6L154.6,33.4z"/>
	</g>
</g>
<text transform="matrix(1 0 0 1 0 23)" class="st0 st1 st2">DEMO MARKETPLACE</text>
<text transform="matrix(1 0 0 1 71.3418 33.9824)" class="st0 st3 st4">powered by</text>
</svg>
