<?xml version="1.0" encoding="utf-8"?>
<!-- Generator: Adobe Illustrator 20.0.0, SVG Export Plug-In . SVG Version: 6.00 Build 0)  -->
<svg version="1.1" id="Layer_1" xmlns="http://www.w3.org/2000/svg" xmlns:xlink="http://www.w3.org/1999/xlink" x="0px" y="0px"
	 viewBox="0 0 160 42" style="enable-background:new 0 0 160 42;" xml:space="preserve">
<style type="text/css">
	.st0{fill:#004062;}
	.st1{enable-background:new    ;}
</style>
<g>
	<rect x="119.3" y="29.1" class="st0" width="1.2" height="5.2"/>
	<path class="st0" d="M124.1,30.2c0,0-0.1,0-0.2,0s-0.2,0-0.4,0c-0.6,0-1.2,0.3-1.2,1.3v2.8h-1.2v-5.2h1.2v0.7
		c0.2-0.4,0.7-0.8,1.4-0.8c0.1,0,0.2,0,0.3,0L124.1,30.2L124.1,30.2z"/>
	<path class="st0" d="M127.4,30.5c-0.3-0.3-0.7-0.4-1.1-0.4c-0.5,0-0.7,0.3-0.7,0.5s0.1,0.5,0.8,0.7c1.4,0.4,1.8,0.7,1.8,1.6
		s-0.6,1.5-2,1.5c-0.8,0-1.5-0.2-2.1-0.7l0.7-0.9c0.4,0.4,0.9,0.6,1.4,0.6s0.7-0.2,0.7-0.5s-0.2-0.5-0.9-0.7
		c-1.3-0.3-1.7-0.8-1.7-1.7c0-0.7,0.5-1.5,1.9-1.5c0.6,0,1.3,0.2,1.7,0.6L127.4,30.5z"/>
	<path class="st0" d="M131.6,33.2l0.4,1c-0.3,0.2-0.6,0.3-1,0.3c-1.2,0-1.7-0.6-1.7-1.7v-2.5h-0.7v-1h0.7v-1.1h1.2v1.1h1.2v1h-1.2
		v2.6c0,0.5,0.2,0.6,0.6,0.6C131.2,33.4,131.4,33.3,131.6,33.2"/>
	<path class="st0" d="M148.3,33.2l0.4,1c-0.3,0.2-0.6,0.3-1,0.3c-1.2,0-1.7-0.6-1.7-1.7v-2.5h-0.7v-1h0.7v-1.1h1.2v1.1h1.2v1h-1.2
		v2.6c0,0.5,0.2,0.6,0.6,0.6C148,33.4,148.2,33.3,148.3,33.2"/>
	<path class="st0" d="M142.5,33.5c0.7,0,1.3-0.6,1.3-1.4c-0.4-0.1-0.9-0.2-1.3-0.2c-0.7,0-1.1,0.4-1.1,0.8
		C141.4,33.2,141.8,33.5,142.5,33.5 M140.7,29.5c0,0,0.1-0.1,0.2-0.1c0.5-0.3,1.1-0.4,1.6-0.4c1.7,0,2.4,0.6,2.4,2.1v3.2h-1.2v-0.6
		c-0.3,0.5-0.8,0.7-1.6,0.7c-1.3,0-1.9-0.7-1.9-1.7s0.7-1.7,2-1.7c0.6,0,1.2,0.1,1.5,0.2v-0.1c0-0.7-0.4-1-1.3-1
		c-0.5,0-0.9,0.1-1.3,0.4L140.7,29.5z"/>
	<path class="st0" d="M151.1,33.5c0.7,0,1.3-0.6,1.3-1.4c-0.4-0.1-0.9-0.2-1.3-0.2c-0.7,0-1.1,0.4-1.1,0.8
		C150,33.2,150.5,33.5,151.1,33.5 M149.3,29.5c0,0,0.1-0.1,0.2-0.1c0.5-0.3,1.1-0.4,1.6-0.4c1.7,0,2.4,0.6,2.4,2.1v3.2h-1.2v-0.6
		c-0.4,0.5-0.8,0.7-1.6,0.7c-1.3,0-2-0.7-2-1.7s0.7-1.7,2.1-1.7c0.5,0,1.2,0.1,1.5,0.2v-0.1c0-0.7-0.4-1-1.3-1
		c-0.5,0-0.9,0.1-1.3,0.4L149.3,29.5z"/>
	<path class="st0" d="M136.3,33.2c1.5,0,2.5-1,2.5-2.4l0,0c0-1.4-1-2.5-2.5-2.5h-1.4v5h1.4V33.2z M133.7,27.1h2.7
		c2.3,0,3.9,1.6,3.9,3.6l0,0c0,2.1-1.6,3.6-3.9,3.6h-2.7V27.1z"/>
	<polygon class="st0" points="113.8,27.1 118.9,27.1 118.9,28.3 115.1,28.3 115.1,30.2 118.4,30.2 118.4,31.4 115.1,31.4 
		115.1,34.3 113.8,34.3 	"/>
	<g>
		<path class="st0" d="M154.7,33c0.4,0,0.7,0.3,0.7,0.7s-0.3,0.7-0.7,0.7S154,34,154,33.7C154,33.3,154.3,33,154.7,33z M154.7,34.3
			c0.3,0,0.6-0.3,0.6-0.6s-0.3-0.6-0.6-0.6c-0.4,0-0.6,0.3-0.6,0.6S154.4,34.3,154.7,34.3z M154.7,33.8h-0.2V34h-0.1v-0.6h0.3
			c0.1,0,0.2,0.1,0.2,0.2C154.9,33.6,154.9,33.7,154.7,33.8l0.2,0.2h-0.1L154.7,33.8z M154.6,33.4v0.2h0.2c0.1,0,0.1,0,0.1-0.1
			s0-0.1-0.1-0.1L154.6,33.4L154.6,33.4z"/>
	</g>
</g>
<g class="st1">
	<path class="st0" d="M1.2,5.9h3.6c1.4,0,2.5,0.4,3.2,1.2s1.1,1.9,1.1,3.3v8c0,1.6-0.4,2.8-1.2,3.5C7.1,22.6,6,23,4.6,23H1.2V5.9z
		 M3.6,20.7h1.1c0.7,0,1.2-0.2,1.5-0.5c0.3-0.3,0.4-0.9,0.4-1.6v-8.2c0-0.7-0.1-1.2-0.4-1.6C5.9,8.4,5.4,8.2,4.7,8.2H3.6V20.7z"/>
	<path class="st0" d="M11.4,5.9h7.3v2.3h-4.8v5H18v2.3h-4.2v5h4.8V23h-7.3V5.9z"/>
	<path class="st0" d="M20.3,5.9h2.4l3.1,9h0l3.1-9h2.4V23h-2.4V12.6h0L26.4,20h-1.2l-2.4-7.3h0V23h-2.4V5.9z"/>
	<path class="st0" d="M33.5,9.9c0-0.7,0.1-1.3,0.4-1.8c0.2-0.5,0.6-1,0.9-1.3c0.4-0.3,0.8-0.6,1.3-0.8c0.5-0.2,1-0.3,1.5-0.3
		s1,0.1,1.5,0.3c0.5,0.2,0.9,0.4,1.3,0.8c0.4,0.3,0.7,0.8,0.9,1.3c0.2,0.5,0.4,1.1,0.4,1.8v9c0,0.7-0.1,1.3-0.4,1.8
		c-0.2,0.5-0.6,1-0.9,1.3c-0.4,0.3-0.8,0.6-1.3,0.8c-0.5,0.2-1,0.3-1.5,0.3s-1-0.1-1.5-0.3c-0.5-0.2-0.9-0.4-1.3-0.8
		c-0.4-0.3-0.7-0.8-0.9-1.3c-0.2-0.5-0.4-1.1-0.4-1.8V9.9z M35.9,19c0,0.6,0.2,1,0.5,1.3c0.3,0.3,0.7,0.4,1.2,0.4s0.8-0.1,1.2-0.4
		c0.3-0.3,0.5-0.7,0.5-1.3v-9c0-0.6-0.2-1-0.5-1.3c-0.3-0.3-0.7-0.4-1.2-0.4s-0.8,0.1-1.2,0.4c-0.3,0.3-0.5,0.7-0.5,1.3V19z"/>
	<path class="st0" d="M48.3,5.9h2.4l3.1,9h0l3.1-9h2.4V23h-2.4V12.6h0L54.4,20h-1.2l-2.4-7.3h0V23h-2.4V5.9z"/>
	<path class="st0" d="M64.3,5.9h2L70.2,23h-2.4L67,19.3h-3.3L63,23h-2.4L64.3,5.9z M65.4,10.8L65.4,10.8L64.1,17h2.4L65.4,10.8z"/>
	<path class="st0" d="M71.4,5.9h3.9c2.9,0,4.3,1.7,4.3,5c0,1-0.2,1.8-0.5,2.6s-0.9,1.3-1.6,1.7l2.6,7.8h-2.6l-2.3-7.3h-1.5V23h-2.4
		V5.9z M73.8,13.5h1.4c0.4,0,0.8-0.1,1-0.2s0.5-0.3,0.6-0.5c0.1-0.2,0.2-0.5,0.3-0.8c0-0.3,0.1-0.7,0.1-1.1s0-0.8-0.1-1.1
		c0-0.3-0.1-0.6-0.3-0.8c-0.2-0.2-0.4-0.4-0.6-0.5c-0.3-0.1-0.6-0.2-1.1-0.2h-1.3V13.5z"/>
	<path class="st0" d="M81.6,5.9h2.4v7.8h0l3.6-7.8h2.4l-3.3,6.8l4,10.2h-2.6l-2.8-7.6l-1.3,2.5V23h-2.4V5.9z"/>
	<path class="st0" d="M91.8,5.9h7.3v2.3h-4.8v5h4.2v2.3h-4.2v5h4.8V23h-7.3V5.9z"/>
	<path class="st0" d="M102.3,8.2h-2.8V5.9h8.1v2.3h-2.8V23h-2.4V8.2z"/>
	<path class="st0" d="M108.7,5.9h3.7c0.7,0,1.3,0.1,1.8,0.3c0.5,0.2,1,0.5,1.4,0.9c0.4,0.4,0.7,1,0.9,1.6c0.2,0.6,0.2,1.4,0.2,2.4
		c0,0.8,0,1.4-0.1,1.9c-0.1,0.5-0.3,1-0.6,1.5c-0.3,0.6-0.8,1-1.3,1.3c-0.6,0.3-1.3,0.5-2.2,0.5h-1.2V23h-2.4V5.9z M111.1,14h1.2
		c0.5,0,0.9-0.1,1.2-0.2c0.3-0.1,0.5-0.3,0.6-0.6s0.2-0.5,0.2-0.9c0-0.4,0-0.7,0-1.2c0-0.4,0-0.8,0-1.1c0-0.4-0.1-0.7-0.2-0.9
		c-0.1-0.3-0.3-0.5-0.6-0.6c-0.3-0.2-0.6-0.2-1.1-0.2h-1.3V14z"/>
	<path class="st0" d="M118.5,5.9h2.4v14.6h4.8V23h-7.3V5.9z"/>
	<path class="st0" d="M130.1,5.9h2l3.8,17.1h-2.4l-0.7-3.7h-3.3l-0.7,3.7h-2.4L130.1,5.9z M131.1,10.8L131.1,10.8l-1.2,6.2h2.4
		L131.1,10.8z"/>
	<path class="st0" d="M144.9,19.2c0,0.5-0.1,1-0.3,1.5c-0.2,0.5-0.5,0.9-0.8,1.3c-0.4,0.4-0.8,0.6-1.2,0.9c-0.5,0.2-1,0.3-1.5,0.3
		c-0.5,0-0.9-0.1-1.4-0.2c-0.5-0.1-0.9-0.3-1.3-0.7c-0.4-0.3-0.7-0.7-0.9-1.2c-0.2-0.5-0.4-1.2-0.4-1.9V9.7c0-0.6,0.1-1.1,0.3-1.6
		c0.2-0.5,0.5-0.9,0.8-1.2c0.4-0.4,0.8-0.6,1.3-0.8s1-0.3,1.6-0.3c0.6,0,1.1,0.1,1.6,0.3c0.5,0.2,0.9,0.5,1.2,0.8
		c0.4,0.4,0.6,0.8,0.8,1.3c0.2,0.5,0.3,1.1,0.3,1.6v1h-2.4V10c0-0.5-0.1-0.9-0.4-1.2s-0.6-0.5-1.1-0.5c-0.6,0-1,0.2-1.2,0.6
		c-0.2,0.4-0.3,0.9-0.3,1.4v8.7c0,0.5,0.1,0.9,0.3,1.2c0.2,0.3,0.6,0.5,1.2,0.5c0.2,0,0.3,0,0.5-0.1c0.2-0.1,0.4-0.1,0.5-0.3
		s0.3-0.3,0.4-0.5c0.1-0.2,0.1-0.5,0.1-0.8v-0.8h2.4V19.2z"/>
	<path class="st0" d="M146.9,5.9h7.3v2.3h-4.8v5h4.2v2.3h-4.2v5h4.8V23h-7.3V5.9z"/>
</g>
<g class="st1">
	<path class="st0" d="M71.9,31.3c0-0.5,0-0.9,0-1.3h0.6l0,0.7h0c0.3-0.5,0.8-0.8,1.4-0.8c1,0,1.7,0.8,1.7,2c0,1.4-0.9,2.1-1.8,2.1
		c-0.5,0-1-0.2-1.2-0.6h0v2.1h-0.7V31.3z M72.6,32.4c0,0.1,0,0.2,0,0.3c0.1,0.5,0.6,0.8,1.1,0.8c0.8,0,1.2-0.6,1.2-1.5
		c0-0.8-0.4-1.5-1.2-1.5c-0.5,0-0.9,0.4-1.1,0.9c0,0.1,0,0.2,0,0.3V32.4z"/>
	<path class="st0" d="M80.1,32c0,1.5-1,2.1-2,2.1c-1.1,0-1.9-0.8-1.9-2c0-1.3,0.9-2.1,2-2.1C79.4,29.9,80.1,30.8,80.1,32z M77,32
		c0,0.9,0.5,1.5,1.2,1.5c0.7,0,1.2-0.6,1.2-1.5c0-0.7-0.3-1.5-1.2-1.5C77.4,30.5,77,31.3,77,32z"/>
	<path class="st0" d="M81.3,30l0.5,2c0.1,0.4,0.2,0.8,0.3,1.3h0c0.1-0.4,0.2-0.8,0.4-1.2l0.6-2h0.6l0.6,2c0.1,0.5,0.3,0.9,0.4,1.3h0
		c0.1-0.4,0.2-0.8,0.3-1.3l0.6-2h0.7L85,34h-0.7l-0.6-1.9c-0.1-0.4-0.3-0.8-0.4-1.3h0c-0.1,0.5-0.2,0.9-0.4,1.3L82.4,34h-0.7
		L80.5,30H81.3z"/>
	<path class="st0" d="M87.3,32.1c0,1,0.6,1.4,1.4,1.4c0.5,0,0.8-0.1,1.1-0.2l0.1,0.5c-0.3,0.1-0.7,0.2-1.3,0.2c-1.2,0-1.9-0.8-1.9-2
		c0-1.2,0.7-2.1,1.8-2.1c1.3,0,1.6,1.1,1.6,1.9c0,0.1,0,0.3,0,0.3H87.3z M89.4,31.6c0-0.5-0.2-1.2-1-1.2c-0.7,0-1,0.7-1.1,1.2H89.4z
		"/>
	<path class="st0" d="M91,31.3c0-0.5,0-0.9,0-1.2h0.6l0,0.8h0c0.2-0.5,0.6-0.9,1.1-0.9c0.1,0,0.1,0,0.2,0v0.7c-0.1,0-0.1,0-0.2,0
		c-0.5,0-0.9,0.4-1,0.9c0,0.1,0,0.2,0,0.3V34H91V31.3z"/>
	<path class="st0" d="M94,32.1c0,1,0.6,1.4,1.4,1.4c0.5,0,0.8-0.1,1.1-0.2l0.1,0.5c-0.3,0.1-0.7,0.2-1.3,0.2c-1.2,0-1.9-0.8-1.9-2
		c0-1.2,0.7-2.1,1.8-2.1c1.3,0,1.6,1.1,1.6,1.9c0,0.1,0,0.3,0,0.3H94z M96.1,31.6c0-0.5-0.2-1.2-1-1.2c-0.7,0-1,0.7-1.1,1.2H96.1z"
		/>
	<path class="st0" d="M101.1,28.2V33c0,0.4,0,0.8,0,1h-0.6l0-0.7h0c-0.2,0.4-0.7,0.8-1.3,0.8c-1,0-1.7-0.8-1.7-2
		c0-1.3,0.8-2.1,1.8-2.1c0.6,0,1,0.3,1.2,0.6h0v-2.4H101.1z M100.4,31.6c0-0.1,0-0.2,0-0.3c-0.1-0.5-0.5-0.8-1-0.8
		c-0.7,0-1.2,0.7-1.2,1.5c0,0.8,0.4,1.5,1.2,1.5c0.5,0,0.9-0.3,1.1-0.9c0-0.1,0-0.2,0-0.3V31.6z"/>
	<path class="st0" d="M104,34c0-0.3,0-0.7,0-1v-4.8h0.7v2.5h0c0.3-0.4,0.7-0.7,1.3-0.7c1,0,1.7,0.8,1.7,2c0,1.4-0.9,2.1-1.8,2.1
		c-0.6,0-1-0.2-1.3-0.7h0l0,0.7H104z M104.7,32.4c0,0.1,0,0.2,0,0.3c0.1,0.5,0.6,0.8,1.1,0.8c0.7,0,1.2-0.6,1.2-1.5
		c0-0.8-0.4-1.5-1.2-1.5c-0.5,0-0.9,0.3-1.1,0.9c0,0.1,0,0.2,0,0.3V32.4z"/>
	<path class="st0" d="M108.8,30l0.9,2.3c0.1,0.3,0.2,0.6,0.3,0.8h0c0.1-0.2,0.2-0.5,0.3-0.8L111,30h0.8l-1.1,2.8
		c-0.5,1.4-0.9,2-1.4,2.5c-0.4,0.3-0.7,0.4-0.9,0.5l-0.2-0.6c0.2-0.1,0.4-0.2,0.6-0.4c0.2-0.2,0.4-0.4,0.6-0.8
		c0-0.1,0.1-0.1,0.1-0.2s0-0.1,0-0.2l-1.5-3.6H108.8z"/>
</g>
</svg>
